<svg xmlns="http://www.w3.org/2000/svg" xmlns:xlink="http://www.w3.org/1999/xlink" width="512" height="512" viewBox="0 0 375 362.999992" preserveAspectRatio="xMidYMid meet" version="1.2">
  <defs>
    <clipPath id="f53053357e">
      <path d="M 0.222656 1.820312 L 186.222656 1.820312 L 186.222656 360.320312 L 0.222656 360.320312 Z M 0.222656 1.820312 "/>
    </clipPath>
    <clipPath id="c0f9704ef2">
      <path d="M 188.773438 1.445312 L 374.773438 1.445312 L 374.773438 359.945312 L 188.773438 359.945312 Z M 188.773438 1.445312 "/>
    </clipPath>
    <clipPath id="96fccdb71a">
      <path d="M 161.671875 0 L 210.851562 0 L 210.851562 42.964844 L 161.671875 42.964844 Z M 161.671875 0 "/>
    </clipPath>
    <clipPath id="dc61702b4e">
      <path d="M 186.226562 0 L 210.777344 42.964844 L 161.671875 42.964844 Z M 186.226562 0 "/>
    </clipPath>
    <clipPath id="4d1226ee1d">
      <path d="M 161.597656 319.765625 L 210.773438 319.765625 L 210.773438 362.730469 L 161.597656 362.730469 Z M 161.597656 319.765625 "/>
    </clipPath>
    <clipPath id="016979b724">
      <path d="M 186.222656 362.730469 L 161.671875 319.765625 L 210.773438 319.765625 Z M 186.222656 362.730469 "/>
    </clipPath>
    <clipPath id="5c7e516a54">
      <path d="M 174.492188 169.636719 L 197.957031 169.636719 L 197.957031 193.101562 L 174.492188 193.101562 Z M 174.492188 169.636719 "/>
    </clipPath>
    <clipPath id="b8681fd8d6">
      <path d="M 186.226562 169.636719 C 179.746094 169.636719 174.492188 174.890625 174.492188 181.367188 C 174.492188 187.847656 179.746094 193.101562 186.226562 193.101562 C 192.707031 193.101562 197.957031 187.847656 197.957031 181.367188 C 197.957031 174.890625 192.707031 169.636719 186.226562 169.636719 Z M 186.226562 169.636719 "/>
    </clipPath>
  </defs>
  <g id="e66b12291f">
    <rect x="0" width="375" y="0" height="362.999992" style="fill:#ffffff;fill-opacity:1;stroke:none;"/>
    <g clip-rule="nonzero" clip-path="url(#f53053357e)">
      <path style=" stroke:none;fill-rule:nonzero;fill:#000000;fill-opacity:1;" d="M 186.183594 8.988281 L 186.183594 181.070312 L 186.214844 181.070312 L 186.214844 360.320312 L 179.058594 360.320312 C 129.671875 360.320312 84.960938 340.257812 52.59375 307.816406 C 20.230469 275.378906 0.210938 230.566406 0.210938 181.070312 C 0.210938 131.574219 20.230469 86.757812 52.59375 54.320312 C 84.960938 21.882812 129.671875 1.820312 179.058594 1.820312 L 186.183594 1.820312 Z M 186.183594 8.988281 "/>
    </g>
    <g clip-rule="nonzero" clip-path="url(#c0f9704ef2)">
      <path style=" stroke:none;fill-rule:nonzero;fill:#1800ad;fill-opacity:1;" d="M 188.8125 352.773438 L 188.8125 180.695312 L 188.785156 180.695312 L 188.785156 1.445312 L 195.9375 1.445312 C 245.324219 1.445312 290.039062 21.507812 322.402344 53.945312 C 354.769531 86.386719 374.789062 131.199219 374.789062 180.695312 C 374.789062 230.191406 354.769531 275.003906 322.402344 307.445312 C 290.039062 339.882812 245.328125 359.945312 195.941406 359.945312 L 188.8125 359.945312 Z M 188.8125 352.773438 "/>
    </g>
    <g clip-rule="nonzero" clip-path="url(#96fccdb71a)">
      <g clip-rule="nonzero" clip-path="url(#dc61702b4e)">
        <path style=" stroke:none;fill-rule:nonzero;fill:#a6a6a6;fill-opacity:1;" d="M 161.671875 0 L 210.851562 0 L 210.851562 42.964844 L 161.671875 42.964844 Z M 161.671875 0 "/>
      </g>
    </g>
    <path style="fill:none;stroke-width:13;stroke-linecap:butt;stroke-linejoin:miter;stroke:#a6a6a6;stroke-opacity:1;stroke-miterlimit:4;" d="M -0.00144985 6.500113 L 369.071503 6.500113 " transform="matrix(0,0.749873,-0.749873,0,191.096915,42.969837)"/>
    <g clip-rule="nonzero" clip-path="url(#4d1226ee1d)">
      <g clip-rule="nonzero" clip-path="url(#016979b724)">
        <path style=" stroke:none;fill-rule:nonzero;fill:#a6a6a6;fill-opacity:1;" d="M 210.773438 362.730469 L 161.597656 362.730469 L 161.597656 319.765625 L 210.773438 319.765625 Z M 210.773438 362.730469 "/>
      </g>
    </g>
    <g clip-rule="nonzero" clip-path="url(#5c7e516a54)">
      <g clip-rule="nonzero" clip-path="url(#b8681fd8d6)">
        <path style=" stroke:none;fill-rule:nonzero;fill:#b4b4b4;fill-opacity:1;" d="M 174.492188 169.636719 L 197.957031 169.636719 L 197.957031 193.101562 L 174.492188 193.101562 Z M 174.492188 169.636719 "/>
      </g>
    </g>
    <path style="fill:none;stroke-width:13;stroke-linecap:butt;stroke-linejoin:miter;stroke:#a6a6a6;stroke-opacity:1;stroke-miterlimit:4;" d="M -0.000375279 6.499763 L 122.46419 6.502237 " transform="matrix(0.553582,0.501888,-0.501888,0.553582,46.879547,58.519223)"/>
    <path style="fill:none;stroke-width:13;stroke-linecap:butt;stroke-linejoin:miter;stroke:#a6a6a6;stroke-opacity:1;stroke-miterlimit:4;" d="M -0.00307289 6.500217 L 127.499702 6.501386 " transform="matrix(0.533685,-0.526954,0.526954,0.533685,43.45523,298.794941)"/>
    <path style="fill:none;stroke-width:13;stroke-linecap:butt;stroke-linejoin:miter;stroke:#a6a6a6;stroke-opacity:1;stroke-miterlimit:4;" d="M -0.000430554 6.498121 L 134.859241 6.501796 " transform="matrix(-0.570024,0.487415,-0.487415,-0.570024,334.069377,65.403512)"/>
    <path style="fill:none;stroke-width:13;stroke-linecap:butt;stroke-linejoin:miter;stroke:#a6a6a6;stroke-opacity:1;stroke-miterlimit:4;" d="M 0.00019983 6.503186 L 129.492999 6.500276 " transform="matrix(0.566261,0.487492,-0.487492,0.566261,260.388885,231.973653)"/>
  </g>
</svg>
