<?xml version="1.0" encoding="UTF-8" standalone="no"?>
<svg
   width="50"
   height="35"
   viewBox="0 0 35 35"
   fill="none"
   version="1.1"
   id="svg1"
   xmlns="http://www.w3.org/2000/svg">
  <defs
     id="defs1" />
  <rect
     width="35"
     height="35"
     fill="#0052ff"
     id="rect1"
     x="0"
     y="0"
     style="stroke-width:0.0341797" />
  <path
     fill-rule="evenodd"
     clip-rule="evenodd"
     d="m 5.1953125,17.5 c 0,6.795708 5.5089795,12.304687 12.3046875,12.304687 6.795708,0 12.304687,-5.508979 12.304687,-12.304687 C 29.804687,10.704292 24.295708,5.1953125 17.5,5.1953125 10.704292,5.1953125 5.1953125,10.704292 5.1953125,17.5 Z m 9.1601555,-3.964844 c -0.453051,0 -0.820312,0.367261 -0.820312,0.820312 v 6.289063 c 0,0.453052 0.367261,0.820312 0.820312,0.820312 h 6.289063 c 0.453052,0 0.820312,-0.36726 0.820312,-0.820312 v -6.289063 c 0,-0.453051 -0.36726,-0.820312 -0.820312,-0.820312 z"
     fill="#ffffff"
     id="path1"
     style="stroke-width:0.0341797" />
</svg>
